:SAMPLES-PER-SECOND 30
:FRAME-RANGE 1-663
:FULLY-SPECIFIED
:DEGREES
249
root  19.4838 37.982 107.739 177.621 -66.6066 -177.839
RightUpLeg  3.86262 -0.908487 4.79153
RightLeg  14.2164 -2.40377 -1.50492
RightFoot  -18.6049 -0.12058 0.0835221
RightToes  2.91037e-010 0 -3.6325e-017
Spine  7.62596 1.1275 7.28215
Spine1  3.71456 3.17098 -7.6131
HEad  15.4581 16.5177 -5.71999
LeftShoulder1  2.14263 -2.66818 -28.6514
LeftArm  0.852729 -36.5347 -40.2006
LeftForeArm  -2.72065 -8.38227 -15.517
LeftHand  0.357266 0.599801 -8.82002
RightShoulder  13.0807 30.3392 32.2993
RightArm  -7.50769 30.2382 12.0622
RightForeArm  -2.54028 19.3397 6.95094
RightHand  0.687998 2.89191 9.40545
LeftUpLeg  -20.1747 3.94311 4.91572
LeftLeg  3.0398 -11.058 -1.84375
LeftFoot  1.5767 1.80419 -15.9359
LeftToes  -4.9116e-011 5.71383e-011 -3.31847e-011
250
root  18.7493 37.8241 107.779 176.827 -64.8031 -176.563
RightUpLeg  4.22564 0.859424 5.26954
RightLeg  14.9451 -2.36572 -2.05199
RightFoot  -19.9073 -0.068662 0.882403
RightToes  2.91037e-010 0 -3.6325e-017
Spine  8.3301 1.51744 7.66329
Spine1  3.66846 3.93158 -8.75721
HEad  14.3211 14.7323 -4.79016
LeftShoulder1  2.15228 -2.74765 -28.3583
LeftArm  1.53726 -36.823 -41.366
LeftForeArm  -4.98343 -9.21156 -15.2148
LeftHand  0.366369 0.838357 -9.55822
RightShoulder  13.0844 32.2319 30.1767
RightArm  -18.6548 31.9298 10.6364
RightForeArm  3.77621 13.9957 9.7019
RightHand  0.775029 3.0501 10.4045
LeftUpLeg  -20.8737 4.13567 4.47409
LeftLeg  5.84768 -15.4606 -2.77739
LeftFoot  5.33986 1.91738 -13.2531
LeftToes  -4.9116e-011 5.71383e-011 -3.31847e-011
251
root  18.0106 37.6669 107.821 177.481 -62.6405 -176.761
RightUpLeg  4.34223 3.86273 5.23355
RightLeg  16.0308 -3.09797 -2.6946
RightFoot  -21.395 0.0196256 1.87037
RightToes  2.91037e-010 0 -3.6325e-017
Spine  9.57557 2.1784 7.21275
Spine1  3.08469 4.84213 -9.71397
HEad  12.7736 12.8065 -3.9613
LeftShoulder1  2.13774 -2.71757 -28.2891
LeftArm  2.26396 -37.0211 -43.194
LeftForeArm  -6.49441 -9.99793 -14.8563
LeftHand  0.371879 1.12401 -10.4051
RightShoulder  13.1036 34.4478 27.9614
RightArm  -28.767 32.7402 9.03767
RightForeArm  8.98472 8.94916 10.6964
RightHand  0.838846 3.04305 11.2841
LeftUpLeg  -21.6459 3.68835 4.04723
LeftLeg  8.29996 -15.028 -2.89222
LeftFoot  9.15944 1.80371 -10.2638
LeftToes  -4.9116e-011 5.71383e-011 -3.31847e-011
252
root  17.3083 37.5118 107.864 179.457 -61.2948 -177.853
RightUpLeg  3.52121 7.30334 4.5984
RightLeg  17.7748 -5.02055 -3.20532
RightFoot  -22.808 0.130395 2.83794
RightToes  2.91037e-010 0 -3.6325e-017
Spine  11.01 2.77992 6.17788
Spine1  2.13765 5.52855 -10.5468
HEad  10.636 10.4725 -2.87221
LeftShoulder1  2.16039 -2.8301 -28.0305
LeftArm  7.29394 -37.3467 -46.1186
LeftForeArm  -12.1639 -12.0848 -14.1457
LeftHand  0.338435 1.57387 -10.7103
RightShoulder  12.6675 35.5423 25.7721
RightArm  -34.7742 34.0662 7.63283
RightForeArm  11.8292 5.02264 10.0276
RightHand  0.89079 3.18919 11.7762
LeftUpLeg  -24.0862 3.63436 3.17561
LeftLeg  13.3256 -13.7271 -3.56819
LeftFoot  6.89691 1.38673 -8.88886
LeftToes  -4.9116e-011 5.71383e-011 -3.31847e-011
253
root  16.6362 37.4554 107.958 -178.72 -60.7117 -178.235
RightUpLeg  2.69931 8.13994 3.69644
RightLeg  17.9554 -5.43322 -3.28935
RightFoot  -23.265 0.197009 3.39614
RightToes  2.91037e-010 0 -3.6325e-017
Spine  12.0883 3.17473 6.35385
Spine1  1.82534 6.27124 -12.0627
HEad  7.3258 7.56369 -2.11877
LeftShoulder1  2.2893 -3.16857 -28.2405
LeftArm  14.1781 -37.9267 -49.9115
LeftForeArm  -17.3475 -14.8318 -12.7485
LeftHand  0.378195 1.29999 -11.0701
RightShoulder  11.8146 36.3979 22.7906
RightArm  -37.4877 34.8481 6.05158
RightForeArm  12.3213 1.81479 8.85109
RightHand  0.890736 3.32623 11.5802
LeftUpLeg  -26.0649 4.56891 2.1492
LeftLeg  15.9806 -13.8493 -4.18258
LeftFoot  5.41862 1.1554 -8.05858
LeftToes  -4.9116e-011 5.71383e-011 -3.31847e-011
254
root  16.0183 37.5307 108.1 -176.556 -60.1771 -178.384
RightUpLeg  1.83365 6.2866 2.54957
RightLeg  16.3337 -5.21873 -3.49338
RightFoot  -22.5195 0.259089 4.2065
RightToes  2.91037e-010 0 -3.6325e-017
Spine  12.9975 3.33613 7.15175
Spine1  1.49111 6.97371 -14.26
HEad  3.51132 4.66935 -2.24238
LeftShoulder1  2.39705 -3.44635 -28.4265
LeftArm  22.5907 -38.1678 -54.1923
LeftForeArm  -21.2006 -17.9122 -10.5525
LeftHand  0.422362 0.848216 -11.0178
RightShoulder  10.695 37.3664 19.1249
RightArm  -39.4441 35.5149 4.672
RightForeArm  13.6181 -2.12622 7.63188
RightHand  0.858048 3.28856 11.2006
LeftUpLeg  -27.61 5.59575 1.06903
LeftLeg  16.3495 -14.1579 -4.39993
LeftFoot  4.87201 0.979074 -7.07637
LeftToes  -4.9116e-011 5.71383e-011 -3.31847e-011
255
root  15.4528 37.6425 108.244 -174.305 -60.1184 -178.359
RightUpLeg  0.975856 2.20021 1.34612
RightLeg  13.9639 -4.64586 -3.2071
RightFoot  -21.5599 0.37266 5.79975
RightToes  2.91037e-010 0 -3.6325e-017
Spine  13.8203 3.38339 7.5843
Spine1  1.21374 7.35987 -15.6702
HEad  0.0789096 1.91324 -2.41204
LeftShoulder1  2.46926 -3.61892 -28.6102
LeftArm  31.5417 -38.1496 -58.866
LeftForeArm  -26.8625 -21.1737 -7.93348
LeftHand  0.392684 0.952536 -10.5173
RightShoulder  9.51082 37.8563 15.7198
RightArm  -41.0119 36.031 2.78977
RightForeArm  15.2687 -5.38232 6.65135
RightHand  0.893345 3.3235 11.6184
LeftUpLeg  -29.0918 6.26419 0.0942379
LeftLeg  15.8072 -14.7491 -4.57407
LeftFoot  4.72127 0.88825 -6.49499
LeftToes  -4.9116e-011 5.71383e-011 -3.31847e-011
256
root  14.9177 37.7767 108.361 -172.148 -59.8299 -178.135
RightUpLeg  -0.264524 -0.99829 0.479522
RightLeg  12.1589 -6.20532 -2.74587
RightFoot  -19.9093 0.394163 7.0581
RightToes  2.91037e-010 0 -3.6325e-017
Spine  14.4811 3.61399 7.6569
Spine1  0.841422 7.74178 -16.4945
HEad  -3.13691 -0.432015 -2.2456
LeftShoulder1  2.56128 -3.88562 -28.6062
LeftArm  35.6434 -37.8486 -63.4342
LeftForeArm  -28.3662 -23.4377 -6.50659
LeftHand  0.385134 0.972104 -10.3683
RightShoulder  8.50906 37.9883 13.0341
RightArm  -42.5948 36.0716 0.985805
RightForeArm  14.8904 -6.89497 5.99622
RightHand  0.883508 3.30841 11.5098
LeftUpLeg  -30.4436 6.59054 -0.446242
LeftLeg  14.869 -14.8285 -4.59328
LeftFoot  4.28667 0.922551 -6.9077
LeftToes  -4.9116e-011 5.71383e-011 -3.31847e-011
